<?xml version="1.0" encoding="UTF-8"?>
<svg width="241px" height="158px" viewBox="0 0 241 158" version="1.1" xmlns="http://www.w3.org/2000/svg" xmlns:xlink="http://www.w3.org/1999/xlink">
    <!-- Generator: Sketch 63.1 (92452) - https://sketch.com -->
    <title>Ilustracion auriculares</title>
    <desc>Created with Sketch.</desc>
    <g id="Test-Alumno" stroke="none" stroke-width="1" fill="none" fill-rule="evenodd">
        <g id="test-de-audio" transform="translate(-100.000000, -72.000000)">
            <g id="Ilustracion-auriculares" transform="translate(89.000000, 63.000000)">
                <path d="M97.5518346,165 C141.521891,165 171,142.737327 171,100.942678 C171,78.9956498 160.665525,66.3824504 144.963511,52.55972 C130.763518,40.0592422 100.721515,11 79.8408265,11 C35.8707703,11 1.71199842,57.8322217 11.7703408,100.942678 C21.8286832,144.053133 53.5817784,165 97.5518346,165 Z" id="Fondo" fill="#BAD7B6" opacity="0.101841518" transform="translate(90.500000, 88.000000) scale(-1, 1) rotate(8.000000) translate(-90.500000, -88.000000) "></path>
                <path d="M131.250982,48.926651 C120.854621,38.8052229 107.095804,33 93.5,33 C79.9041964,33 66.1453795,38.8052229 55.7490179,48.926651 C44.9487723,59.4397978 39,73.1450874 39,87.5 C39,93.9889033 41.1289062,102.363412 46.9998214,118.046759 C52.8707366,133.730107 64.546875,140.29687 69.4786384,141.369839 C70.8922321,141.678834 72.5491295,142 74.0357143,142 C76.5972963,142.002156 79.1144426,141.330917 81.3348214,140.053566 L84.7410714,138.107138 C88.4076563,135.9612 89.478192,131.263009 87.36875,127.559929 L66.2208036,90.4391044 C65.2029294,88.6449285 63.5093534,87.3327321 61.5178234,86.7951973 C59.5262934,86.2576624 57.4024701,86.5395028 55.620067,87.5778545 L52.2892411,89.524283 C51.0090652,90.2742344 49.8587637,91.2265197 48.8829911,92.3441713 C48.6356441,92.6344113 48.2415757,92.7534493 47.8749087,92.6486873 C47.5082416,92.5439253 47.2365433,92.2346682 47.1798661,91.8575642 C46.9346232,90.4175982 46.8028342,88.9605976 46.7857143,87.5 C46.7857143,75.2593953 51.8950893,63.5394628 61.1795536,54.5056017 C70.1428571,45.7856021 81.916317,40.7857139 93.5,40.7857139 C105.083683,40.7857139 116.857143,45.7856021 125.820446,54.5056017 C135.104911,63.5394628 140.214286,75.2593953 140.214286,87.5 C140.192342,88.9609816 140.055672,90.417985 139.805536,91.8575642 C139.748858,92.2346682 139.47716,92.5439253 139.110493,92.6486873 C138.743826,92.7534493 138.349758,92.6344113 138.102411,92.3441713 C137.126638,91.2265197 135.976337,90.2742344 134.696161,89.524283 L131.365335,87.5778545 C129.582932,86.5395028 127.459108,86.2576624 125.467578,86.7951973 C123.476048,87.3327321 121.782472,88.6449285 120.764598,90.4391044 L99.63125,127.559929 C97.521808,131.263009 98.5923437,135.9612 102.258929,138.107138 L105.665179,140.053566 C107.885557,141.330917 110.402704,142.002156 112.964286,142 C114.450871,142 116.107768,141.678834 117.521362,141.369839 C122.453125,140.29687 134.131696,133.727674 140.000179,118.046759 C145.868661,102.365845 148,93.9889033 148,87.5 C148,73.1450874 142.051228,59.4397978 131.250982,48.926651 Z" id="Icon" fill="#766787" transform="translate(93.500000, 87.500000) rotate(16.000000) translate(-93.500000, -87.500000) "></path>
                <path d="M123.652344,134.277344 C160.376302,160.449219 185.166667,160.449219 198.023438,134.277344 C210.880208,108.105469 228.539062,98.3997396 251,105.160156" id="Path" stroke="#766787" stroke-width="5"></path>
            </g>
        </g>
    </g>
</svg>