<?xml version="1.0" encoding="UTF-8"?>
<svg width="128px" height="123px" viewBox="0 0 128 123" version="1.1" xmlns="http://www.w3.org/2000/svg" xmlns:xlink="http://www.w3.org/1999/xlink">
    <title>Group 4</title>
    <g id="03_Test-Alumno-(dev-ready)" stroke="none" stroke-width="1" fill="none" fill-rule="evenodd">
        <g id="1_Instrucciones-(simplificado)" transform="translate(-199.000000, -577.000000)">
            <g id="Group-7" transform="translate(186.000000, 577.000000)">
                <g id="Group-4" transform="translate(13.000000, 0.000000)">
                    <g id="Ilustracion-correo-Copy" transform="translate(62.500000, 61.600000) scale(1, -1) translate(-62.500000, -61.600000) translate(0.000000, 0.600000)" fill="#F8FBF8">
                        <path d="M67.2753232,113.999416 C97.5939962,114.007935 117.915722,98.632772 117.907624,69.7576069 C117.903368,54.5948037 110.774993,45.8785702 99.9453036,36.3256532 C90.1515595,27.6865478 69.4310649,7.60422206 55.0332037,7.60017332 C24.7145308,7.5916528 1.17010969,39.9405643 8.11399415,69.7267453 C15.0578786,99.5129263 36.9566502,113.990891 67.2753232,113.999416 Z" id="Fondo" transform="translate(62.398954, 60.799795) scale(-1, 1) rotate(8.000000) translate(-62.398954, -60.799795) "></path>
                    </g>
                    <path d="M112.88832,65.57608 C112.19004,53.69608 102.39696,44.2 90.5922,44.2 C83.4246,44.2 76.48404,47.71516 72.18348,53.45056 C72.08448,53.39908 71.9802,53.36344 71.87988,53.31592 C71.61852,53.1892 71.3532,53.06908 71.0826,52.96084 C70.93212,52.90144 70.78164,52.84732 70.62984,52.79452 C70.36188,52.7008 70.08996,52.61764 69.81276,52.5424 C69.66096,52.50148 69.51048,52.45924 69.35736,52.42492 C69.06036,52.3576 68.75676,52.30612 68.45052,52.25992 C68.3172,52.24012 68.18652,52.21372 68.05188,52.1992 C67.61364,52.15036 67.17012,52.12 66.72,52.12 C60.16884,52.12 54.84,57.44884 54.84,64 C54.84,64.16764 54.85056,64.33264 54.86112,64.49764 L54.86112,64.50292 C49.37124,67.49668 45.6,73.76668 45.6,80.04328 C45.6,89.39284 53.20584,97 62.5554,97 L94.90596,97 C95.04324,97 95.1792,96.99208 95.31648,96.98152 L95.39832,96.97096 L95.5752,96.98152 C95.70984,96.99208 95.84448,97 95.98308,97 L108.92304,97 C117.67728,97 124.8,89.87728 124.8,81.12304 C124.8,73.87756 119.74836,67.3792 112.88832,65.57608 Z" id="Path" stroke="#766787" stroke-width="4.8" fill-rule="nonzero"></path>
                    <path d="M21.6,45.8 C29.9230329,42.8666667 35.0070212,44.7333333 36.8519647,51.4 C39.61938,61.4 34.0785001,43.4 50.8519647,34.6" id="Path-2" stroke="#766787" stroke-width="4.8" stroke-linecap="round"></path>
                </g>
            </g>
        </g>
    </g>
</svg>