<?xml version="1.0" encoding="UTF-8"?>
<svg width="140px" height="130px" viewBox="0 0 140 130" version="1.1" xmlns="http://www.w3.org/2000/svg" xmlns:xlink="http://www.w3.org/1999/xlink">
    <!-- Generator: Sketch 63.1 (92452) - https://sketch.com -->
    <title>I/duracion</title>
    <desc>Created with Sketch.</desc>
    <g id="I/duracion" stroke="none" stroke-width="1" fill="none" fill-rule="evenodd">
        <g id="Ilustracion_Tiempo" transform="translate(8.000000, 4.000000)">
            <g id="Ilustracion-correo" fill="#BAD7B6" opacity="0.101841518">
                <path d="M67.2753232,113.999416 C97.5939962,114.007935 117.915722,98.632772 117.907624,69.7576069 C117.903368,54.5948037 110.774993,45.8785702 99.9453036,36.3256532 C90.1515595,27.6865478 69.4310649,7.60422206 55.0332037,7.60017332 C24.7145308,7.5916528 1.17010969,39.9405643 8.11399415,69.7267453 C15.0578786,99.5129263 36.9566502,113.990891 67.2753232,113.999416 Z" id="Fondo" transform="translate(62.398954, 60.799795) scale(-1, 1) rotate(8.000000) translate(-62.398954, -60.799795) "></path>
            </g>
            <path d="M63.0639892,36.8000974 L63.1123358,36.8012592 C79.4339612,37.1767322 92.535648,50.4065873 92.7960496,66.7054701 L92.8,67.200305 C92.8,84.0205791 79.200591,97.6314274 62.3964743,97.5999455 C45.5412703,97.5680828 31.8151604,83.7128139 32.0018828,66.8839349 C32.0777341,59.5143901 34.8301129,52.4237363 39.7462078,46.9330735 C40.6076824,45.9709142 42.0860206,45.8893014 43.0481684,46.7507864 C44.0103163,47.6122713 44.0919281,49.0906272 43.2304534,50.0527865 C39.0712266,54.6981223 36.7425963,60.6971191 36.6784028,66.9339465 C36.5205464,81.161258 48.1460334,92.8961378 62.4052755,92.9230005 C76.6201928,92.9497243 88.1232122,81.437029 88.1232122,67.200305 C88.1232122,53.9164209 78.0411744,42.9460606 65.0749671,41.6070357 L64.7392733,41.5750013 L64.7392733,52.0005628 C64.7392733,53.2766629 63.7171174,54.3140227 62.4468977,54.3385409 L62.4008794,54.3389847 C61.1247947,54.3389847 60.0874472,53.3168165 60.0629293,52.0465816 L60.0624948,39.7844935 C60.0602271,38.9772836 60.3859959,38.2037886 60.9650781,37.6414287 C61.5276527,37.0950997 62.2821695,36.793779 63.0639892,36.8000974 Z M49.1089416,52.218498 L65.9827878,64.0113446 C68.136446,65.5619392 68.6446047,68.5544177 67.1234624,70.7286235 C65.60232,72.9028294 62.6161711,73.4522026 60.4203916,71.9618131 C59.9538048,71.6385884 59.5461963,71.2376792 59.2153302,70.7765574 L47.4185705,53.9083084 C47.0817156,53.4259145 47.1394653,52.7714708 47.555596,52.3554781 C47.9717268,51.9394853 48.6263876,51.8817548 49.1089416,52.218498 Z" id="Icon" fill="#766787"></path>
        </g>
    </g>
</svg>