<?xml version="1.0" encoding="UTF-8"?>
<svg width="140px" height="130px" viewBox="0 0 140 130" version="1.1" xmlns="http://www.w3.org/2000/svg" xmlns:xlink="http://www.w3.org/1999/xlink">
    <!-- Generator: Sketch 63.1 (92452) - https://sketch.com -->
    <title>I/individual</title>
    <desc>Created with Sketch.</desc>
    <g id="I/individual" stroke="none" stroke-width="1" fill="none" fill-rule="evenodd">
        <g id="Ilustracion-Individual" transform="translate(7.000000, 4.000000)">
            <g id="Ilustracion-correo" transform="translate(63.300000, 61.600000) scale(-1, -1) translate(-63.300000, -61.600000) translate(0.800000, 0.600000)" fill="#BAD7B6" opacity="0.101841518">
                <path d="M67.2753232,113.999416 C97.5939962,114.007935 117.915722,98.632772 117.907624,69.7576069 C117.903368,54.5948037 110.774993,45.8785702 99.9453036,36.3256532 C90.1515595,27.6865478 69.4310649,7.60422206 55.0332037,7.60017332 C24.7145308,7.5916528 1.17010969,39.9405643 8.11399415,69.7267453 C15.0578786,99.5129263 36.9566502,113.990891 67.2753232,113.999416 Z" id="Fondo" transform="translate(62.398954, 60.799795) scale(-1, 1) rotate(8.000000) translate(-62.398954, -60.799795) "></path>
            </g>
            <path d="M63.7992089,66.6 C71.3678224,66.6 78.8220502,68.7617745 84.7385225,72.7768628 C91.2053171,77.1654158 95.5297961,83.5246227 96.9010589,91.2609036 C97.4959396,94.6181822 95.35596,97.8 91.8900616,97.8 L91.8900616,97.8 L35.7083562,97.8 C32.243484,97.8 30.1041599,94.617699 30.6989332,91.2610269 C32.0693428,83.5248274 36.3933833,77.1655162 42.8600598,72.7768866 C48.7763309,68.7617913 56.2305607,66.6 63.7992089,66.6 Z M63.7992089,71.8 C57.2111926,71.8 50.7445975,73.6753687 45.6928707,77.1037384 C40.3455719,80.7326989 36.8406762,85.8873043 35.7252467,92.1840964 C35.6944802,92.3577309 35.7065921,92.501742 35.7352225,92.5914753 L35.7352225,92.5914753 L35.7382027,92.6 L91.8616516,92.6 C91.8912287,92.5084465 91.9035702,92.3795172 91.8811382,92.2237393 L91.8811382,92.2237393 L91.8747938,92.1842467 C90.7586799,85.8874442 87.25331,80.7327488 81.9057816,77.1037622 C76.8538291,73.6753618 70.3872093,71.8 63.7992089,71.8 Z M63.3999234,25.8 C73.4703568,25.8 80.9001715,33.8538885 80.1475249,43.9901344 C79.4247305,53.7151503 71.9640194,61.8 63.3999234,61.8 C54.8313462,61.8 47.3617338,53.7105073 46.6520558,43.9865204 C45.904994,33.7391729 53.2824419,25.8 63.3999234,25.8 Z M63.3999234,30.9428571 C56.2806158,30.9428571 51.2636311,36.3418392 51.7937403,43.6132779 C52.318619,50.805149 57.7221872,56.6571429 63.3999234,56.6571429 C69.0733354,56.6571429 74.4714074,50.8074858 75.0063444,43.6100442 C75.5383566,36.4451861 70.4623881,30.9428571 63.3999234,30.9428571 Z" id="Icon" fill="#766787"></path>
        </g>
    </g>
</svg>