<?xml version="1.0" encoding="UTF-8"?>
<svg width="140px" height="130px" viewBox="0 0 140 130" version="1.1" xmlns="http://www.w3.org/2000/svg" xmlns:xlink="http://www.w3.org/1999/xlink">
    <!-- Generator: Sketch 63.1 (92452) - https://sketch.com -->
    <title>I/intentalo</title>
    <desc>Created with Sketch.</desc>
    <g id="I/intentalo" stroke="none" stroke-width="1" fill="none" fill-rule="evenodd">
        <g id="ilustracion_intentalo" transform="translate(0.000000, 4.000000)">
            <g id="Ilustracion-correo" transform="translate(63.300000, 61.600000) scale(-1, -1) translate(-63.300000, -61.600000) translate(0.800000, 0.600000)" fill="#BAD7B6" opacity="0.101841518">
                <path d="M67.2753232,113.999416 C97.5939962,114.007935 117.915722,98.632772 117.907624,69.7576069 C117.903368,54.5948037 110.774993,45.8785702 99.9453036,36.3256532 C90.1515595,27.6865478 69.4310649,7.60422206 55.0332037,7.60017332 C24.7145308,7.5916528 1.17010969,39.9405643 8.11399415,69.7267453 C15.0578786,99.5129263 36.9566502,113.990891 67.2753232,113.999416 Z" id="Fondo" transform="translate(62.398954, 60.799795) scale(-1, 1) rotate(8.000000) translate(-62.398954, -60.799795) "></path>
            </g>
            <path d="M57.8,21.8 C63.9855892,21.8 69,26.8144108 69,33 L69,51.399 L59.6065209,42.3280091 C55.8632567,38.7131808 49.9394858,38.7484294 46.2391852,42.356883 L46.0321385,42.5649508 L44.9206851,43.7158945 C41.2376525,47.5297863 41.3437349,53.6072444 45.1576268,57.2902769 L45.1576268,57.2902769 L58.1071481,69.7958698 C58.0051001,69.7986174 57.9027115,69.8 57.8,69.8 L32.2,69.8 C26.0144108,69.8 21,64.7855892 21,58.6 L21,33 C21,26.8144108 26.0144108,21.8 32.2,21.8 L57.8,21.8 Z" id="Combined-Shape" fill="#766787"></path>
            <path d="M76.6886201,25.8 C81.0627154,25.8 84.6169021,29.2944892 84.6875484,33.6319431 L84.6886201,33.7636364 L84.6883081,54.5651972 C85.508696,54.2899077 86.3896617,54.1403694 87.3066628,54.1403694 C91.0059427,54.1403694 94.1187829,56.5739591 95.0339404,59.8794723 C96.0238671,59.4484967 97.1193186,59.2092798 98.2716768,59.2092798 C101.121202,59.2092798 103.622763,60.672002 105.039939,62.8744135 C106.044053,62.4243116 107.159464,62.1741773 108.333993,62.1741773 C112.708088,62.1741773 116.262275,65.6433236 116.332921,69.9493214 L116.333993,70.0800596 L116.333993,81.9388831 C116.333993,82.2329552 116.285252,82.5157771 116.195318,82.7798897 C116.066558,92.3858572 113.389634,100.117042 108.426825,105.490568 C103.521408,110.801953 96.6022912,113.552846 88.5499342,113.552846 C81.1706373,113.552846 75.4144773,111.954112 70.9963747,108.826796 C67.165498,106.115142 64.4784645,102.395943 62.4213057,97.5039179 L62.3983841,97.4475888 L62.3767768,97.3907457 L53.7107213,73.7708074 C52.1489463,69.5511325 53.1485729,65.512764 56.8337646,63.4259596 C60.7001357,61.2354864 65.6883518,62.4821503 67.7578569,66.4020745 C67.7826841,66.4491004 67.8060703,66.4968616 67.8279842,66.5452916 L67.8597471,66.6184298 L68.688,68.609 L68.6886201,33.7636364 C68.6886201,29.3654414 72.2703421,25.8 76.6886201,25.8 Z M76.6886201,31.1090909 C75.2333937,31.1090909 74.0504194,32.2694427 74.0224596,33.7113965 L74.0219535,33.7636364 L74.0219535,81.5454545 L74.0216109,81.564407 C74.2486213,82.7595804 73.6143152,83.9901985 72.4426702,84.474973 C71.1162048,85.0238053 69.5970375,84.4114267 69.0224114,83.1065126 L69.0010465,83.056627 L63.050484,68.7636076 L63.048125,68.7593183 C62.3852538,67.6327321 60.8004167,67.2505061 59.4858999,67.9630719 L59.4354774,67.9910188 C58.2431264,68.6662085 57.9195986,69.9227118 58.6276577,71.8871944 L67.3016816,95.5292873 L67.3395275,95.6183633 C69.0138366,99.5508822 71.0880039,102.418412 73.9407477,104.471023 L74.0454644,104.545755 C77.5113335,106.999041 82.2040879,108.302422 88.5499342,108.302422 C102.216808,108.302422 110.761229,99.1988524 110.930751,82.5569063 L110.933321,82.0502991 C110.933321,81.8485541 110.956148,81.6521243 110.999369,81.4634367 L111.000659,70.0800596 C111.000659,68.6246269 109.806752,67.4447655 108.333993,67.4447655 C107.502571,67.4447655 106.76002,67.8207844 106.27097,68.4101267 L106.271677,70.9910979 C106.271677,72.0058702 105.68367,72.8858032 104.823932,73.3203726 C104.347395,73.7623716 103.706008,74.0330008 103.000659,74.0330008 C101.545433,74.0330008 100.362459,72.8810642 100.334499,71.4495677 L100.333993,71.3977067 L100.333993,70.0800596 C100.333993,69.010225 100.549022,67.9900224 100.938701,67.0593579 C100.938343,65.6178433 99.7444362,64.4456434 98.2716768,64.4456434 C96.8164503,64.4456434 95.633476,65.5900999 95.6055162,67.0123009 L95.6050102,68.3729161 C95.6050102,69.818898 94.4111028,70.9910979 92.9383435,70.9910979 C92.7330004,70.9910979 92.5330782,70.9683104 92.3410571,70.9251703 C91.0261098,70.7822077 89.9998546,69.7131335 89.9738355,68.4066177 L89.9733295,61.8942155 C89.9733295,60.4667718 88.7794221,59.3096001 87.3066628,59.3096001 C86.00654,59.3096001 84.9237268,60.2113852 84.6877369,61.4048112 L84.6886201,68.4386364 C84.6886201,69.9047013 83.4947128,71.0931818 82.0219535,71.0931818 C80.897254,71.0931818 79.935178,70.4000729 79.5432572,69.4195345 C79.3977917,69.1099993 79.314353,68.7673594 79.3071689,68.4066177 L79.3066628,68.355754 L79.3066628,61.8942155 C79.3066628,61.6052575 79.3229708,61.3199911 79.3547434,61.039234 L79.3552868,33.7636364 C79.3552868,32.2975714 78.1613795,31.1090909 76.6886201,31.1090909 Z" id="Icon" fill="#766787" transform="translate(84.666996, 69.676423) rotate(-46.000000) translate(-84.666996, -69.676423) "></path>
        </g>
    </g>
</svg>