<?xml version="1.0" encoding="UTF-8"?>
<svg width="160px" height="158px" viewBox="0 0 160 158" version="1.1" xmlns="http://www.w3.org/2000/svg" xmlns:xlink="http://www.w3.org/1999/xlink">
    <!-- Generator: Sketch 63.1 (92452) - https://sketch.com -->
    <title>Ilustracion thumbs up</title>
    <desc>Created with Sketch.</desc>
    <g id="Test-Alumno" stroke="none" stroke-width="1" fill="none" fill-rule="evenodd">
        <g id="vamos-alla!" transform="translate(-100.000000, -72.000000)">
            <g id="Ilustracion-thumbs-up" transform="translate(89.000000, 63.000000)">
                <path d="M97.5518346,165 C141.521891,165 171,142.737327 171,100.942678 C171,78.9956498 160.665525,66.3824504 144.963511,52.55972 C130.763518,40.0592422 100.721515,11 79.8408265,11 C35.8707703,11 1.71199842,57.8322217 11.7703408,100.942678 C21.8286832,144.053133 53.5817784,165 97.5518346,165 Z" id="Fondo" fill="#BAD7B6" opacity="0.101841518" transform="translate(90.500000, 88.000000) scale(-1, 1) rotate(8.000000) translate(-90.500000, -88.000000) "></path>
                <path d="M93.6921916,34 C102.917394,34 108.125393,41.6025357 105.141614,50.1701479 L105.01716,50.5254673 C104.601418,51.7046188 104.171139,52.8468047 103.558033,54.4169501 L102.372473,57.4362573 L102.166153,57.9680795 C100.517368,62.2414308 99.6089937,65.1904175 99.1215674,68.3025341 L99.0831427,68.5539063 L126.577,70.73 L126.671783,70.730944 C132.724862,70.730944 137.696081,76.0675216 137.849954,82.1742762 L137.853625,82.4656379 L137.853625,82.5254848 C137.846524,83.8699536 137.605867,85.1583835 137.17052,86.3518278 C142.398293,87.299616 146.391517,91.8950349 146.497114,97.4713059 L146.497114,97.4713059 L146.499271,97.656269 L146.497101,97.8733844 C146.419339,101.979762 144.230339,105.559748 140.988039,107.53746 C141.670102,108.984976 142.065658,110.602868 142.097369,112.312953 L142.097369,112.312953 L142.099375,112.47056 L142.099375,112.522971 C142.084689,117.883052 138.490537,122.381678 133.63142,123.653023 C134.164929,124.963669 134.470637,126.397534 134.498179,127.902834 L134.498179,127.902834 L134.500158,128.060439 L134.500158,128.11285 C134.483025,134.450705 129.528042,139.584139 123.410509,139.60189 L123.410509,139.60189 L123.318653,139.602156 L108.351908,138.875324 L108.079788,138.849613 C106.616478,138.701762 105.278968,138.39778 104.08408,137.944573 C103.515712,138.059708 102.874912,138.171229 102.159038,138.276285 L101.829152,138.323502 C98.7737944,138.749944 94.8534998,139 89.9614297,139 C84.2879911,139 79.4629897,138.10953 75.129788,136.395872 C72.1325663,135.210557 69.6305888,133.785486 66.6740245,131.709154 L66.3778842,131.5 L52.6538099,131.5 C42.4546173,131.5 34.167227,123.272393 34.0024991,113.060066 L34,112.75 L34,101.5 C34,91.2482143 42.1853984,82.9180893 52.345335,82.752512 L52.6538099,82.75 L59.6283782,82.7500572 C60.8585991,82.7432258 62.0041157,82.1402964 62.7113806,81.1412219 L62.7583455,81.0730469 L62.9432295,80.6882163 L63.0938515,80.3794312 L63.38763,79.7860551 C63.6578674,79.2449101 63.9690215,78.6336196 64.3232796,77.9502887 L64.6632825,77.2976784 C66.1831961,74.3939656 68.141804,70.8274045 70.5901397,66.5539404 L70.8748162,66.0577088 C72.5096423,63.2117153 74.5936513,59.887473 77.1977221,55.927304 L77.6720868,55.2075716 C78.0657923,54.6115586 78.4712152,54.00104 78.8910685,53.3717498 L79.7162745,52.1401249 C81.8376843,48.9861377 86.2295463,42.5179539 86.3443558,42.3476319 L87.1018278,41.2199211 C88.8542359,38.6005932 89.8842578,36.979914 90.3021021,36.1773374 L90.3552967,36.072949 C90.987258,34.8025089 92.2790832,34 93.6921916,34 Z M123.463655,124.269796 L123.442465,124.26933 L108.65791,124.748009 L108.517154,124.748693 C106.368935,124.784202 104.900103,126.198841 104.900103,128.102115 L104.900103,128.102115 L104.900334,128.179499 C104.912594,129.167498 105.12442,129.726801 105.521729,130.111956 L105.521729,130.111956 L105.562077,130.149901 C105.583345,130.169309 105.605334,130.188553 105.628046,130.207626 C106.201575,130.324001 106.739866,130.575409 107.198252,130.938883 C107.682729,131.071276 108.256991,131.170808 108.923065,131.231271 L108.856,131.224 L123.466746,131.93418 L123.535306,131.932076 C125.490465,131.84847 127.055978,130.2023 127.099264,128.166938 L127.099264,128.166938 L127.099924,128.112656 L127.098999,128.029043 L127.097374,127.971772 C127.021911,125.940553 125.428954,124.315207 123.463655,124.269796 L123.463655,124.269796 Z M95.6862839,41.7451563 L95.5193935,42.0105043 C94.9722429,42.8745951 94.2895567,43.9153942 93.4428507,45.1823439 L92.2960083,46.8871668 C91.2496794,48.4296276 86.89806,54.8422937 85.3481077,57.1597155 L84.882618,57.8572542 C84.6781492,58.16419 84.4772122,58.4665436 84.2794755,58.7648355 L83.8881715,59.3561575 C81.1919036,63.4379162 79.0592825,66.8214693 77.4300051,69.645605 L76.7822575,70.7754208 C74.5087757,74.7542508 72.6858144,78.0786158 71.2680822,80.7870287 L71.0998966,81.1090841 C70.6696768,81.9348752 70.3050933,82.6504253 70.002072,83.2591866 L69.7862853,83.6957885 C69.6987533,83.8742551 69.622838,84.0308828 69.5581196,84.1660265 L69.4212023,84.455765 C69.35851,84.592968 69.2876314,84.7262401 69.2089535,84.8548535 C67.1915195,88.1527179 63.6403619,90.1843073 59.7751382,90.2486016 L59.6489886,90.25 L52.6538099,90.25 C46.5342943,90.25 41.5618601,95.1865643 41.4630234,101.313961 L41.461524,101.5 L41.461524,112.75 C41.461524,118.901071 46.372763,123.899146 52.468725,123.998493 L52.6538099,124 L67.5768578,124 C68.3653264,124 69.1335234,124.251093 69.7711864,124.71724 L70.1443495,124.988517 C73.0374944,127.079588 75.2420912,128.380674 77.8616333,129.416628 C81.3105679,130.780583 85.2087209,131.5 89.9614297,131.5 L90.4462875,131.499131 C93.3120683,131.488797 95.7788183,131.38671 97.8732699,131.213718 C97.6402475,130.307614 97.5139361,129.327539 97.5011421,128.276366 L97.5011421,128.276366 L97.5001579,128.126175 L97.5015696,127.912893 C97.5476516,124.980119 98.6637746,122.407595 100.466557,120.506374 C98.3983515,118.603713 97.1471771,115.904727 97.1005972,112.69516 L97.1005972,112.69516 L97.0993748,112.540595 L97.1006517,112.323928 C97.1452852,109.284261 98.2707702,106.716506 100.155869,104.842639 C98.5276402,103.011436 97.5439255,100.61662 97.5006186,97.8589404 L97.5006186,97.8589404 L97.4992705,97.702274 L97.5005834,97.4849889 C97.5441577,94.6501252 98.5795428,92.2116921 100.293295,90.3680463 C98.1508637,88.528333 96.8990155,85.8919171 96.8547263,82.6405887 L96.8547263,82.6405887 L96.8536248,82.4913146 L96.8549533,82.2828081 C96.8922701,79.8777343 97.6656262,77.7642805 98.9736088,76.068228 L96.8770965,75.9025 L96.8649778,75.9022492 C94.9587058,75.8278253 93.4826267,74.7223248 92.5345821,73.193779 L92.4842997,73.1114914 C91.7353165,71.8673221 91.3497373,70.3483672 91.5106567,68.9166333 C92.0268386,64.3909323 93.1197214,60.6491895 95.290068,55.0477672 L95.5789969,54.3065461 L96.5465544,51.8450906 C97.2257907,50.1086419 97.665352,48.9386693 98.098814,47.6930332 C99.15447,44.6618254 98.2535293,42.4779251 95.7308144,41.7574697 L95.6862839,41.7451563 Z M120.378,108.902 L108.512896,109.155226 L108.371892,109.166129 C105.867313,109.379089 104.632019,110.556915 104.599934,112.436645 L104.599934,112.436645 L104.599792,112.581438 C104.627787,114.510424 105.905044,115.721543 108.413918,115.864944 L108.413918,115.864944 L108.479146,115.868286 L130.872798,116.345052 L130.912776,116.344609 C132.928514,116.29921 134.554055,114.637567 134.598467,112.57706 L134.598467,112.57706 L134.599136,112.522777 L134.598432,112.449465 L134.596552,112.381892 C134.543264,110.966672 133.743385,109.748478 132.589452,109.124394 L120.378,108.902 Z M135.207755,93.8386751 L108.970817,94.3152019 L108.846114,94.3252456 C106.437308,94.5414255 105.074275,95.8047259 105.038349,97.5987018 L105.038349,97.5987018 L105.037621,97.6717334 L105.038127,97.7365126 C105.066992,99.5745296 106.48215,100.878492 108.885886,101.024803 L108.885886,101.024803 L108.937601,101.027546 L120.358,101.234 L130.815553,101.012235 L131.043455,101.014387 C132.076641,101.034229 133.076109,101.196237 134.023794,101.482158 L135.210346,101.504552 L135.254087,101.504089 C137.280523,101.458059 138.914548,99.7962616 138.959809,97.735384 L138.959809,97.735384 L138.9605,97.6829937 L138.959793,97.610161 L138.957863,97.5425544 C138.880384,95.5109543 137.257474,93.8854348 135.255043,93.8394006 L135.255043,93.8394006 L135.207755,93.8386751 Z M126.554,78.252 L108.24667,79.1740563 L108.176644,79.1791451 C105.729768,79.3681588 104.344842,80.6154279 104.30882,82.3942046 L104.30882,82.3942046 L104.308586,82.5375317 C104.334157,84.4147778 105.417138,85.4478796 108.17226,85.7465954 L108.17226,85.7465954 L108.260647,85.7555767 L126.708823,86.2202705 L126.745741,86.2200153 C128.737951,86.1809488 130.34864,84.5670978 130.397953,82.5793258 L130.397953,82.5793258 L130.399063,82.5055359 L130.39832,82.3885408 C130.360329,80.4174974 128.87209,78.62226 127.208686,78.2944069 C127.155631,78.2955929 127.102596,78.293559 127.049376,78.2903832 L126.976128,78.2852984 L126.554,78.252 Z" id="Icon" fill="#766787" transform="translate(90.249635, 86.801078) scale(-1, 1) rotate(-13.000000) translate(-90.249635, -86.801078) "></path>
            </g>
        </g>
    </g>
</svg>