<?xml version="1.0" encoding="UTF-8"?>
<svg width="140px" height="130px" viewBox="0 0 140 130" version="1.1" xmlns="http://www.w3.org/2000/svg" xmlns:xlink="http://www.w3.org/1999/xlink">
    <!-- Generator: Sketch 63.1 (92452) - https://sketch.com -->
    <title>I/unica</title>
    <desc>Created with Sketch.</desc>
    <g id="I/unica" stroke="none" stroke-width="1" fill="none" fill-rule="evenodd">
        <g id="Ilustracion_Unico" transform="translate(8.000000, 4.000000)">
            <g id="Ilustracion-correo-Copy" transform="translate(62.500000, 61.000000) scale(-1, -1) translate(-62.500000, -61.000000) " fill="#BAD7B6" opacity="0.101841518">
                <path d="M67.2753232,113.999416 C97.5939962,114.007935 117.915722,98.632772 117.907624,69.7576069 C117.903368,54.5948037 110.774993,45.8785702 99.9453036,36.3256532 C90.1515595,27.6865478 69.4310649,7.60422206 55.0332037,7.60017332 C24.7145308,7.5916528 1.17010969,39.9405643 8.11399415,69.7267453 C15.0578786,99.5129263 36.9566502,113.990891 67.2753232,113.999416 Z" id="Fondo" transform="translate(62.398954, 60.799795) scale(-1, 1) rotate(8.000000) translate(-62.398954, -60.799795) "></path>
            </g>
            <polygon id="1" fill="#766787" fill-rule="nonzero" points="77 75 77 66.4199438 67.9586988 66.4199438 67.9595142 34 61.5020243 34 48.5870445 41.1980337 48.5870445 50.4691011 56.980966 45.758388 56.980966 66.4199438 48 66.4199438 48 75"></polygon>
        </g>
    </g>
</svg>